<svg width="1182" height="907" viewBox="0 0 1182 907" fill="none" xmlns="http://www.w3.org/2000/svg">
<g filter="url(#filter0_f_2080_419)">
<path fill-rule="evenodd" clip-rule="evenodd" d="M555.601 331.328C555.601 331.826 555.594 332.324 555.58 332.82C608.039 338.554 649.428 365.455 658.189 399.526C665.547 398.652 673.131 398.195 680.878 398.195C750.067 398.195 806.156 434.607 806.156 479.523C806.156 484.591 805.442 489.55 804.075 494.362C804.956 494.35 805.838 494.344 806.723 494.344C875.911 494.344 932 530.755 932 575.671C932 620.587 875.911 656.999 806.723 656.999C757.083 656.999 714.186 638.257 693.908 611.078C671.005 627.305 638.091 637.48 601.517 637.48C576.299 637.48 552.821 632.642 533.165 624.319C511.606 635.712 484.098 642.542 454.132 642.542C426.082 642.542 400.185 636.557 379.305 626.448C358.426 636.557 332.529 642.542 304.479 642.542C258.15 642.542 217.694 626.216 196.019 601.943C173.464 623.396 135.501 637.48 92.4711 637.48C23.2822 637.48 -32.8064 601.068 -32.8064 556.152C-32.8064 539.929 -25.4892 524.815 -12.8805 512.126C-63.2529 501.588 -99.6966 470.908 -99.6966 434.703C-99.6966 434.204 -99.6897 433.707 -99.6759 433.21C-158.89 426.737 -204 393.296 -204 353.015C-204 308.099 -147.911 271.687 -78.7226 271.687C-47.7784 271.687 -19.4545 278.971 2.40315 291.041C24.139 266.923 64.4607 250.723 110.611 250.723C167.461 250.723 215.466 275.305 230.781 308.99C244.845 305.442 260.14 303.496 276.136 303.496C288.201 303.496 299.867 304.603 310.908 306.67C326.994 273.808 374.376 250 430.323 250C499.512 250 555.601 286.412 555.601 331.328Z" fill="#007BFF" fill-opacity="0.5"/>
</g>
<defs>
<filter id="filter0_f_2080_419" x="-454" y="0" width="1636" height="907" filterUnits="userSpaceOnUse" color-interpolation-filters="sRGB">
<feFlood flood-opacity="0" result="BackgroundImageFix"/>
<feBlend mode="normal" in="SourceGraphic" in2="BackgroundImageFix" result="shape"/>
<feGaussianBlur stdDeviation="125" result="effect1_foregroundBlur_2080_419"/>
</filter>
</defs>
</svg>
